<svg id="Layer_1" enable-background="new 0 0 506.356 506.356" height="512" viewBox="0 0 506.356 506.356" width="512" xmlns="http://www.w3.org/2000/svg"><g><g><path d="m390.585 151.304c-.368-9.436-8.316-16.788-17.755-16.42-9.438.369-16.788 8.319-16.419 17.756l1.646 42.086-35.573-12.488c-7.121-2.5-14.613-3.777-22.159-3.777h-63.683c-12.332-3.915-55.726-17.69-73.296-23.267l-33.829-65.024c-4.359-8.378-14.683-11.636-23.063-7.279-8.378 4.359-11.637 14.685-7.278 23.063l37.13 71.371c2.113 4.06 5.764 7.104 10.138 8.451l72.252 22.171c.092 110.593 0 108.681 0 108.681l-45.498 52.233c-3.49 4.007-5.362 9.17-5.253 14.482l2.113 102.079c.241 11.653 9.763 20.934 21.362 20.934 11.996 0 21.628-9.847 21.38-21.819l-1.942-93.822 45.764-52.538h20.523l21.937 72.279-16.338 69.637c-2.696 11.494 4.435 22.997 15.928 25.693 11.459 2.689 22.989-4.4 25.694-15.928l17.65-75.23c.859-3.664.736-7.49-.356-11.091l-25.231-84.08v-100.442l55.177 14.777c11.126 2.998 21.984-5.671 21.533-17.181z"/><ellipse cx="267.621" cy="125.487" rx="38.452" ry="38.452" transform="matrix(.982 -.189 .189 .982 -18.902 52.873)"/><path d="m203.102 43.505c2.446 1.424 5.584.594 7.008-1.852l16.152-27.755c1.423-2.447.594-5.585-1.852-7.009-2.447-1.424-5.585-.595-7.008 1.852l-16.152 27.755c-1.424 2.447-.595 5.585 1.852 7.009z"/><path d="m195.533 56.511c-2.448-1.424-5.585-.595-7.009 1.852l-16.153 27.754c-1.424 2.447-.595 5.585 1.852 7.01 2.447 1.423 5.584.594 7.008-1.852l16.153-27.755c1.425-2.447.596-5.584-1.851-7.009z"/><path d="m188.581 41.579c1.405 2.452 4.534 3.309 6.996 1.9 2.456-1.407 3.307-4.539 1.9-6.996l-15.96-27.866c-1.409-2.457-4.54-3.308-6.997-1.9-2.456 1.407-3.307 4.539-1.9 6.996z"/><path d="m217.117 91.399c1.407 2.456 4.54 3.308 6.997 1.9 2.456-1.407 3.307-4.539 1.9-6.996l-15.96-27.866c-1.408-2.457-4.539-3.308-6.996-1.9-2.456 1.407-3.307 4.539-1.9 6.996z"/><path d="m154.536 54.98 32.113.11h.018c2.823 0 5.116-2.283 5.126-5.108.01-2.832-2.278-5.134-5.108-5.145l-32.113-.11c-2.855.01-5.134 2.278-5.144 5.109-.011 2.831 2.277 5.135 5.108 5.144z"/><path d="m211.967 44.925c-2.823 0-5.116 2.284-5.126 5.109-.01 2.831 2.278 5.134 5.108 5.144l32.112.111h.018c2.824 0 5.116-2.284 5.126-5.109.01-2.831-2.278-5.134-5.108-5.144l-32.112-.111c-.006 0-.011 0-.018 0z"/><path d="m143.857 277.846-27.755-16.152c-2.447-1.425-5.585-.595-7.009 1.852-1.423 2.447-.595 5.585 1.852 7.009l27.755 16.152c2.447 1.423 5.584.594 7.009-1.852 1.424-2.447.595-5.585-1.852-7.009z"/><path d="m94.234 248.968-27.756-16.152c-2.448-1.424-5.585-.594-7.008 1.852-1.424 2.447-.595 5.585 1.852 7.009l27.756 16.152c2.442 1.421 5.582.599 7.009-1.852 1.424-2.447.595-5.585-1.853-7.009z"/><path d="m138.885 233.065-27.866 15.96c-2.456 1.407-3.307 4.54-1.9 6.997 1.403 2.449 4.531 3.311 6.997 1.9l27.866-15.96c2.456-1.407 3.307-4.54 1.9-6.996-1.409-2.457-4.54-3.309-6.997-1.901z"/><path d="m89.064 261.601-27.866 15.96c-2.456 1.407-3.307 4.539-1.9 6.996 1.403 2.449 4.531 3.311 6.996 1.9l27.866-15.961c2.456-1.407 3.307-4.539 1.9-6.996-1.407-2.456-4.539-3.307-6.996-1.899z"/><path d="m102.762 209.872c-.006 0-.012 0-.018 0-2.824 0-5.116 2.283-5.126 5.109l-.11 32.113c-.01 2.831 2.278 5.134 5.108 5.144h.018c2.824 0 5.116-2.284 5.126-5.109l.11-32.112c.01-2.832-2.277-5.135-5.108-5.145z"/><path d="m102.565 267.286c-.006 0-.012 0-.018 0-2.823 0-5.116 2.284-5.126 5.108l-.111 32.113c-.01 2.831 2.278 5.134 5.108 5.144h.018c2.824 0 5.116-2.283 5.126-5.109l.111-32.112c.01-2.831-2.278-5.134-5.108-5.144z"/><path d="m488.032 67.974-27.755-16.152c-2.447-1.425-5.585-.595-7.008 1.852s-.595 5.585 1.852 7.008l27.755 16.153c2.447 1.423 5.584.594 7.008-1.852 1.424-2.447.595-5.585-1.852-7.009z"/><path d="m405.499 31.805 27.755 16.152c2.441 1.421 5.582.599 7.008-1.852 1.424-2.447.595-5.585-1.852-7.009l-27.755-16.152c-2.448-1.424-5.584-.595-7.009 1.852-1.423 2.447-.594 5.585 1.853 7.009z"/><path d="m460.291 48.05 27.865-15.961c2.456-1.407 3.307-4.539 1.9-6.996-1.408-2.457-4.54-3.308-6.996-1.901l-27.865 15.96c-2.456 1.408-3.307 4.54-1.9 6.997 1.403 2.45 4.531 3.312 6.996 1.901z"/><path d="m440.236 53.629c-1.409-2.457-4.539-3.308-6.996-1.9l-27.865 15.96c-2.456 1.407-3.307 4.539-1.9 6.996 1.4 2.445 4.526 3.314 6.997 1.901l27.865-15.96c2.455-1.408 3.306-4.54 1.899-6.997z"/><path d="m446.791 42.365h.018c2.824 0 5.116-2.283 5.126-5.109l.11-32.112c.01-2.831-2.278-5.134-5.108-5.144-.006 0-.012 0-.018 0-2.824 0-5.116 2.284-5.126 5.109l-.11 32.112c-.01 2.832 2.278 5.134 5.108 5.144z"/><path d="m446.594 99.779h.018c2.823 0 5.116-2.283 5.126-5.109l.11-32.112c.01-2.831-2.278-5.134-5.108-5.144-.006 0-.012 0-.018 0-2.824 0-5.116 2.283-5.126 5.109l-.11 32.112c-.01 2.831 2.277 5.134 5.108 5.144z"/><path d="m361.388 100.902c0-.046-.001-.03-.002.03 0-.01.002-.02.002-.03z"/><path d="m350.794 108.096c.049 0 .099 0 .148-.001 5.63-.052 10.105-4.777 10.105-10.407v-33.168c.562.241 1.09.577 1.567 1.009 1.195 1.081 1.8 2.673 1.8 4.285v8.488c0 2.677 1.958 5.069 4.623 5.322 3.057.291 5.629-2.105 5.629-5.102v-8.432c0-5.146-2.277-10.125-6.418-13.18-4.012-2.959-9.058-3.848-13.849-2.425-2.151.638-3.604 2.652-3.604 4.895v34.328c-5.851 0-10.594 3.221-10.594 7.195-.002 3.972 4.742 7.193 10.593 7.193z"/><path d="m61.571 87.594c5.724-.056 10.267-4.868 10.267-10.592v-38.04c0-.862-.175-1.728-.588-2.485-1.221-2.238-3.724-3.175-5.965-2.523l-35.371 10.253c-2.191.635-3.7 2.642-3.7 4.924v34.327c-5.851 0-10.594 3.221-10.594 7.195s4.743 7.195 10.594 7.195c.049 0 .099 0 .148-.001 5.63-.052 10.105-4.776 10.105-10.407v-34.458l25.118-7.281v27.511c-.057-.001-.113-.006-.171-.006-5.851 0-10.594 3.221-10.594 7.195s4.743 7.195 10.594 7.195c.053-.001.105-.001.157-.002z"/></g><path d="m468.051 172.076-35.371 10.252c-2.192.635-3.699 2.642-3.699 4.924v34.327c-5.851 0-10.594 3.221-10.594 7.195s4.743 7.195 10.594 7.195c.049 0 .099 0 .148-.001 5.63-.052 10.105-4.776 10.105-10.407v-34.458l25.118-7.281v27.511c-.057-.001-.113-.006-.171-.006-5.851 0-10.594 3.221-10.594 7.195s4.743 7.195 10.594 7.195c.052 0 .104-.001.156-.001 5.724-.056 10.267-4.868 10.267-10.592v-38.04c0-.862-.176-1.728-.588-2.484-1.221-2.24-3.724-3.176-5.965-2.524z"/></g></svg>